{
  "accessors": [
    {
      "bufferView": 0,
      "byteOffset": 0,
      "componentType": 5121,
      "normalized": false,
      "count": 30,
      "type": "SCALAR",
      "max": [
        23
      ],
      "min": [
        0
      ]
    },
    {
      "bufferView": 1,
      "byteOffset": 0,
      "componentType": 5126,
      "normalized": false,
      "count": 24,
      "type": "VEC3",
      "max": [
        7.320222854614258,
        7.0871782302856445,
        51.14909744262695
      ],
      "min": [
        -4.722401142120361,
        -4.962262153625488,
        43.93122100830078
      ]
    }
  ],
  "asset": {
    "generator": "pygltflib@v1.15.6",
    "version": "2.0"
  },
  "bufferViews": [
    {
      "buffer": 0,
      "byteOffset": 0,
      "byteLength": 120,
      "target": 34963
    },
    {
      "buffer": 0,
      "byteOffset": 120,
      "byteLength": 576,
      "target": 34962
    }
  ],
  "buffers": [
    {
      "uri": "Box01.bin",
      "byteLength": 696
    }
  ],
  "meshes": [
    {
      "primitives": [
        {
          "attributes": {
            "POSITION": 1
          },
          "indices": 0,
          "mode": 4
        }
      ]
    }
  ],
  "nodes": [
    {
      "mesh": 0
    }
  ],
  "scene": 0,
  "scenes": [
    {
      "nodes": [
        0
      ]
    }
  ]
}